<?xml version="1.0" standalone="no"?>
<!DOCTYPE svg PUBLIC "-//W3C//DTD SVG 20010904//EN"
 "http://www.w3.org/TR/2001/REC-SVG-20010904/DTD/svg10.dtd">
<svg version="1.0" xmlns="http://www.w3.org/2000/svg"
 width="256.000000pt" height="256.000000pt" viewBox="0 0 256.000000 256.000000"
 preserveAspectRatio="xMidYMid meet">
<metadata>
Created by potrace 1.10, written by Peter Selinger 2001-2011
</metadata>
<g transform="translate(0.000000,256.000000) scale(0.050000,-0.050000)"
fill="#000000" stroke="none">
<path d="M904 4536 c-15 -15 -24 -90 -24 -200 l0 -176 -136 0 c-170 0 -184
-14 -184 -184 l0 -136 -136 0 c-79 0 -146 -10 -160 -24 -35 -35 -35 -2957 0
-2992 18 -18 258 -24 955 -24 l931 0 33 -79 c98 -234 656 -234 754 0 l33 79
931 0 c697 0 937 6 955 24 32 32 35 2918 3 2977 -17 33 -42 39 -160 39 l-139
0 0 136 c0 170 -14 184 -184 184 l-136 0 0 178 c0 237 1 236 -286 206 -487
-51 -943 -251 -1276 -559 l-118 -109 -118 109 c-317 294 -766 498 -1212 553
-230 28 -296 28 -326 -2z m462 -177 c394 -81 724 -253 1009 -527 l105 -101 0
-1245 0 -1246 -125 101 c-353 285 -915 499 -1309 499 -4 0 -6 576 -6 1280 l0
1280 62 0 c34 0 153 -19 264 -41z m2714 -1239 c0 -704 -2 -1280 -6 -1280 -394
0 -956 -214 -1309 -499 l-125 -101 0 1246 0 1245 105 101 c331 319 866 559
1260 567 l75 1 0 -1280z m-3200 -256 c0 -1277 -13 -1184 166 -1184 365 0 844
-176 1177 -432 153 -118 161 -137 33 -86 -291 115 -908 238 -1351 269 l-185
13 0 1278 0 1278 80 0 80 0 0 -1136z m3520 -144 l0 -1280 -45 0 c-371 -1
-1161 -148 -1494 -280 -125 -49 -117 -29 35 86 346 262 811 434 1178 434 179
0 166 -93 166 1184 l0 1136 80 0 80 0 0 -1280z m-3840 -218 c0 -918 6 -1181
25 -1197 14 -11 147 -25 295 -32 526 -24 1122 -157 1574 -352 l105 -45 145 60
c474 195 1014 313 1546 338 143 6 271 20 285 31 19 16 25 279 25 1197 l0 1178
80 0 80 0 0 -1360 0 -1360 -889 0 c-962 0 -972 -1 -1011 -108 -47 -126 -39
-122 -260 -122 -221 0 -213 -4 -260 122 -39 107 -49 108 -1011 108 l-889 0 0
1360 0 1360 80 0 80 0 0 -1178z"/>
<path d="M1382 3932 c-44 -52 -7 -109 84 -133 258 -66 422 -133 685 -280 86
-49 141 -44 163 14 48 125 -843 507 -932 399z"/>
<path d="M1381 3531 c-36 -43 -6 -109 55 -122 170 -35 465 -146 614 -231 208
-120 299 -120 261 -2 -43 135 -855 446 -930 355z"/>
<path d="M1381 3131 c-53 -64 -7 -101 191 -157 184 -52 435 -161 592 -258 79
-49 139 -37 152 29 26 132 -847 492 -935 386z"/>
<path d="M1384 2736 c-64 -64 -16 -105 188 -158 150 -39 429 -161 594 -261 80
-48 137 -38 150 28 25 129 -834 489 -932 391z"/>
<path d="M1379 2328 c-47 -56 6 -94 208 -152 173 -50 448 -174 598 -270 65
-41 121 -20 131 51 21 137 -847 481 -937 371z"/>
<path d="M3506 3920 c-302 -79 -696 -287 -696 -368 0 -92 60 -86 284 32 200
104 346 161 560 215 90 24 128 81 85 132 -30 37 -56 35 -233 -11z"/>
<path d="M3460 3508 c-186 -54 -545 -223 -617 -289 -91 -85 -7 -175 102 -111
226 135 513 251 739 300 99 22 89 153 -11 151 -24 -1 -119 -23 -213 -51z"/>
<path d="M3480 3118 c-167 -44 -565 -230 -636 -298 -97 -92 -6 -177 112 -104
157 97 408 206 592 258 198 56 244 93 191 157 -31 38 -76 35 -259 -13z"/>
<path d="M3470 2718 c-163 -46 -559 -235 -626 -298 -97 -92 -9 -175 110 -103
166 100 444 222 595 262 181 47 232 82 199 136 -31 49 -115 50 -278 3z"/>
<path d="M3420 2302 c-349 -116 -627 -272 -616 -346 10 -70 67 -91 131 -50
132 86 443 225 610 273 191 55 242 94 196 149 -37 46 -127 38 -321 -26z"/>
</g>
</svg>
