<?xml version="1.0" standalone="no"?>
<!DOCTYPE svg PUBLIC "-//W3C//DTD SVG 20010904//EN"
 "http://www.w3.org/TR/2001/REC-SVG-20010904/DTD/svg10.dtd">
<svg version="1.0" xmlns="http://www.w3.org/2000/svg"
 width="300.000000pt" height="300.000000pt" viewBox="0 0 300.000000 300.000000"
 preserveAspectRatio="xMidYMid meet">
<metadata>
Created by potrace 1.10, written by Peter Selinger 2001-2011
</metadata>
<g transform="translate(0.000000,300.000000) scale(0.050000,-0.050000)"
fill="#000000" stroke="none">
<path d="M2834 5471 c-352 -125 -462 -499 -264 -891 275 -543 796 -411 943
239 96 427 -285 793 -679 652z"/>
<path d="M1821 4725 c-105 -54 -151 -130 -151 -251 0 -77 -14 -128 -53 -194
-81 -136 -121 -300 -114 -464 6 -128 3 -143 -35 -157 -137 -51 -161 -135 -106
-379 74 -332 108 -360 443 -360 180 0 215 5 215 31 0 60 81 187 153 243 l74
56 753 0 753 0 74 -56 c72 -56 153 -183 153 -243 0 -43 389 -45 489 -3 86 36
103 70 164 319 56 231 53 261 -34 344 l-62 59 -1436 6 -1436 5 -12 85 c-16
114 20 309 74 405 45 79 45 79 156 72 195 -12 297 79 297 263 0 188 -191 305
-359 219z"/>
<path d="M2457 4299 c-270 -31 -417 -184 -417 -433 l0 -46 960 0 960 0 0 46
c0 75 -56 244 -99 299 -100 127 -442 190 -493 92 -104 -202 -634 -199 -738 3
-17 33 -33 59 -36 57 -2 -1 -64 -9 -137 -18z"/>
<path d="M2286 3088 c-137 -68 -136 -53 -67 -1164 85 -1380 74 -1281 152
-1359 l65 -65 564 0 564 0 65 65 c78 78 67 -21 152 1359 69 1115 70 1098 -71
1164 -98 47 -1328 47 -1424 0z"/>
</g>
</svg>
