<?xml version="1.0" standalone="no"?>
<!DOCTYPE svg PUBLIC "-//W3C//DTD SVG 20010904//EN"
 "http://www.w3.org/TR/2001/REC-SVG-20010904/DTD/svg10.dtd">
<svg version="1.0" xmlns="http://www.w3.org/2000/svg"
 width="300.000000pt" height="300.000000pt" viewBox="0 0 300.000000 300.000000"
 preserveAspectRatio="xMidYMid meet">
<metadata>
Created by potrace 1.10, written by Peter Selinger 2001-2011
</metadata>
<g transform="translate(0.000000,300.000000) scale(0.100000,-0.100000)"
fill="#000000" stroke="none">
<path d="M1373 2815 c-189 -51 -340 -206 -383 -394 -19 -82 -8 -229 25 -319
120 -330 407 -492 660 -372 97 46 205 156 263 267 100 192 109 383 25 552 -36
74 -151 188 -225 223 -117 57 -253 73 -365 43z"/>
<path d="M2143 1981 c-48 -22 -73 -62 -73 -117 0 -28 11 -52 51 -106 55 -73
90 -98 138 -98 26 0 43 -17 150 -152 l121 -153 0 -277 0 -278 -1149 0 -1150 0
-27 -24 c-38 -32 -39 -86 -1 -124 27 -26 31 -27 157 -30 l130 -4 0 -212 c0
-152 3 -215 12 -224 17 -17 1979 -17 1996 0 9 9 12 72 12 224 l0 212 129 4
c112 3 132 6 151 23 34 31 42 61 26 100 -19 44 -42 55 -115 55 l-61 0 0 303
-1 302 -129 164 c-118 149 -130 168 -124 195 7 42 -8 77 -62 146 -42 54 -93
90 -126 90 -7 0 -32 -9 -55 -19z"/>
<path d="M1275 1585 c-218 -34 -305 -63 -396 -131 -112 -86 -162 -191 -184
-386 -13 -121 -13 -134 2 -150 15 -17 58 -18 803 -18 754 0 788 1 804 19 15
17 15 28 2 147 -8 73 -23 153 -35 185 -49 129 -164 241 -289 279 -193 60 -515
85 -707 55z"/>
</g>
</svg>
