<?xml version="1.0" standalone="no"?>
<!DOCTYPE svg PUBLIC "-//W3C//DTD SVG 20010904//EN"
 "http://www.w3.org/TR/2001/REC-SVG-20010904/DTD/svg10.dtd">
<svg version="1.0" xmlns="http://www.w3.org/2000/svg"
 width="300.000000pt" height="300.000000pt" viewBox="0 0 300.000000 300.000000"
 preserveAspectRatio="xMidYMid meet">
<metadata>
Created by potrace 1.10, written by Peter Selinger 2001-2011
</metadata>
<g transform="translate(0.000000,300.000000) scale(0.100000,-0.100000)"
 stroke="none">
<path d="M1373 2815 c-183 -50 -331 -196 -378 -376 -48 -180 22 -425 166 -582
206 -225 477 -223 684 6 137 152 207 400 161 572 -36 137 -151 281 -268 337
-117 57 -253 73 -365 43z m233 -30 c184 -42 325 -178 374 -358 18 -67 8 -234
-19 -311 -55 -156 -174 -300 -294 -357 -188 -87 -404 -17 -537 176 -152 220
-162 493 -25 667 121 155 316 226 501 183z"/>
<path d="M2143 1981 c-48 -22 -73 -62 -73 -117 0 -28 11 -52 51 -106 55 -73
90 -98 138 -98 26 0 43 -17 150 -152 l121 -153 0 -277 0 -278 -1149 0 -1150 0
-27 -24 c-38 -32 -39 -86 -1 -124 27 -27 29 -27 157 -27 l130 0 0 -216 c0
-154 3 -218 12 -227 17 -17 1979 -17 1996 0 9 9 12 73 12 227 l0 216 129 0
c115 0 131 2 151 20 34 31 42 61 26 100 -19 44 -42 55 -115 55 l-61 0 0 301 0
300 -130 166 c-119 151 -130 168 -125 197 8 42 -6 77 -61 146 -42 54 -93 90
-126 90 -7 0 -32 -9 -55 -19z m128 -58 c66 -70 79 -93 79 -140 0 -24 5 -54 12
-66 9 -18 105 -143 219 -287 l28 -35 3 -296 c3 -333 2 -329 73 -329 23 0 56
-5 74 -11 26 -9 31 -16 31 -44 0 -51 -15 -56 -150 -56 -170 -1 -160 15 -160
-249 l0 -210 -980 0 -980 0 -1 133 c0 72 -1 167 0 210 1 111 -3 114 -158 115
-133 0 -151 7 -151 52 0 58 -65 55 1176 58 l1144 2 14 23 c12 18 15 74 15 295
l0 272 -76 98 c-172 220 -183 232 -214 232 -47 0 -78 21 -125 83 -56 75 -60
122 -13 161 47 40 96 36 140 -11z"/>
<path d="M1275 1585 c-240 -37 -343 -77 -433 -165 -94 -93 -127 -171 -148
-359 -12 -114 -12 -127 3 -143 15 -17 58 -18 803 -18 745 0 788 1 803 18 15
16 15 30 3 147 -16 151 -39 220 -100 303 -83 113 -180 162 -396 202 -148 28
-407 35 -535 15z m455 -36 c181 -29 245 -45 313 -82 132 -70 209 -186 226
-342 21 -189 21 -185 -3 -190 -11 -3 -363 -4 -781 -3 l-760 3 -3 55 c-4 69 14
201 36 254 27 69 81 145 125 178 95 70 173 94 442 136 95 15 276 11 405 -9z"/>
</g>
</svg>
